name C:\Users\u0101727\Documents\MyRepositories\upper-imu-dc\Results\main_tracking\Case_40\kinematics.mot
datacolumns 10
datarows 42
range 5.00000000 5.41000000
endheader 
time	clav_prot	clav_elev	scapula_abduction	scapula_elevation	scapula_upward_rot	scapula_winging	plane_elv	shoulder_elv	axial_rot	
          5.00000000	        -22.22349281	          2.26997904	          1.32753627	         -3.87112115	         35.03776415	         -1.85987759	         68.54503857	         46.33389763	        -22.63735508	
          5.01000000	        -22.37910208	          2.08655641	          0.63533923	         -3.91266365	         34.42534311	         -1.67874806	         68.28051069	         45.92788916	        -22.36289916	
          5.02000000	        -22.70717945	          1.88576115	         -0.28198280	         -3.99058830	         33.90616168	         -1.50798346	         68.05010061	         45.46395490	        -22.08381953	
          5.03000000	        -22.84997818	          1.65307343	         -0.82354101	         -4.08811718	         33.43567414	         -1.34243561	         67.85032200	         44.98487210	        -21.80068867	
          5.04000000	        -22.24332505	          1.35864024	         -0.02055676	         -4.18757375	         32.97220482	         -1.17720178	         67.67387527	         44.52960901	        -21.52191652	
          5.05000000	        -23.03896181	          1.18812636	         -1.73546122	         -4.27374754	         32.48919473	         -1.00690580	         67.49380842	         44.12095121	        -21.26117183	
          5.06000000	        -23.07268407	          0.96879675	         -2.10751017	         -4.34706499	         31.98716239	         -0.83462210	         67.28353739	         43.75211231	        -21.03242089	
          5.07000000	        -23.11510031	          0.75223001	         -2.49409464	         -4.41779751	         31.48481612	         -0.66129602	         67.02761350	         43.40173975	        -20.85564117	
          5.08000000	        -23.14641186	          0.52877737	         -2.85200751	         -4.49321946	         30.98987971	         -0.48612546	         66.72084251	         43.06026220	        -20.74208157	
          5.09000000	        -23.16427537	          0.29483786	         -3.17355703	         -4.57658568	         30.50605840	         -0.30888843	         66.36642821	         42.72261395	        -20.69303440	
          5.10000000	        -23.17427201	          0.05105922	         -3.46813344	         -4.66806911	         30.03442358	         -0.12991414	         65.97355140	         42.38629789	        -20.69842202	
          5.11000000	        -23.18204335	         -0.19975604	         -3.74641175	         -4.76612115	         29.57523694	          0.05000224	         65.55393685	         42.04920567	        -20.73985891	
          5.12000000	        -23.19052313	         -0.45438885	         -4.01462057	         -4.86866023	         29.12846875	          0.22994315	         65.11855535	         41.70891597	        -20.79577996	
          5.13000000	        -23.20041893	         -0.71024307	         -4.27509742	         -4.97385856	         28.69380256	          0.40917716	         64.67551669	         41.36272074	        -20.84628982	
          5.14000000	        -23.21166656	         -0.96558548	         -4.52880170	         -5.08039709	         28.27059428	          0.58726929	         64.22969903	         41.00788266	        -20.87576625	
          5.15000000	        -23.22430665	         -1.21914308	         -4.77687404	         -5.18724576	         27.85799032	          0.76395370	         63.78387752	         40.64183722	        -20.87271884	
          5.16000000	        -23.23881519	         -1.46937226	         -5.02132550	         -5.29316848	         27.45504437	          0.93888121	         63.34048531	         40.26239905	        -20.82782539	
          5.17000000	        -23.25627393	         -1.71378832	         -5.26559911	         -5.39621051	         27.06058476	          1.11141961	         62.90294907	         39.86814647	        -20.73170745	
          5.18000000	        -23.27832038	         -1.94870438	         -5.51480744	         -5.49341903	         26.67282722	          1.28062948	         62.47583950	         39.45896364	        -20.57359570	
          5.19000000	        -23.30664910	         -2.16957159	         -5.77498854	         -5.58098812	         26.28904098	          1.44542539	         62.06368482	         39.03645994	        -20.34141405	
          5.20000000	        -23.34223117	         -2.37185251	         -6.05146226	         -5.65486209	         25.90561374	          1.60484599	         61.66894903	         38.60398800	        -20.02353599	
          5.21000000	        -23.38473751	         -2.55208942	         -6.34717034	         -5.71160158	         25.51860656	          1.75831783	         61.29011413	         38.16622352	        -19.61193152	
          5.22000000	        -23.43247891	         -2.70873513	         -6.66179481	         -5.74917452	         25.12460058	          1.90580512	         60.92078916	         37.72849550	        -19.10553233	
          5.23000000	        -23.48281521	         -2.84247092	         -6.99186031	         -5.76739816	         24.72150742	          2.04779622	         60.55026749	         37.29612008	        -18.51234380	
          5.24000000	        -23.53275742	         -2.95601512	         -7.33150622	         -5.76796163	         24.30908516	          2.18515492	         60.16528440	         36.87389261	        -17.84938693	
          5.25000000	        -23.57941267	         -3.05363033	         -7.67328879	         -5.75414943	         23.88911980	          2.31890466	         59.75229321	         36.46569065	        -17.14032158	
          5.26000000	        -23.62005496	         -3.14058385	         -8.00847266	         -5.73046838	         23.46541845	          2.45000943	         59.29952601	         36.07400143	        -16.41126372	
          5.27000000	        -23.65192085	         -3.22272689	         -8.32686420	         -5.70232962	         23.04373261	          2.57920238	         58.79834190	         35.69928468	        -15.68591572	
          5.28000000	        -23.67200062	         -3.30622595	         -8.61667560	         -5.67581567	         22.63156995	          2.70690110	         58.24371752	         35.33931170	        -14.98146403	
          5.29000000	        -23.67693224	         -3.39738345	         -8.86467336	         -5.65747053	         22.23781172	          2.83321583	         57.63404642	         34.98871071	        -14.30642394	
          5.30000000	        -23.66281238	         -3.50243463	         -9.05628579	         -5.65402170	         21.87217466	          2.95800283	         56.97058602	         34.63882915	        -13.66080216	
          5.31000000	        -23.62471355	         -3.62717169	         -9.17526017	         -5.67193231	         21.54463317	          3.08087688	         56.25686542	         34.27791035	        -13.03813553	
          5.32000000	        -23.55571590	         -3.77623552	         -9.20256083	         -5.71665630	         21.26482068	          3.20109894	         55.49815060	         33.89162284	        -12.42860562	
          5.33000000	        -23.44910083	         -3.95169315	         -9.12163467	         -5.79127579	         21.04027539	          3.31747680	         54.70083312	         33.46505858	        -11.82232393	
          5.34000000	        -23.31985293	         -4.14829270	         -8.96055613	         -5.89282937	         20.87045891	          3.42840560	         53.87220325	         32.98928578	        -11.21236361	
          5.35000000	        -23.39211294	         -4.33546973	         -9.14183661	         -6.00236050	         20.71321361	          3.53757014	         53.02169987	         32.49573137	        -10.59348701	
          5.36000000	        -22.60926476	         -4.59037251	         -7.82783553	         -6.11228444	         20.55814011	          3.64589118	         52.15985595	         31.98566657	         -9.97359703	
          5.37000000	        -23.35941693	         -4.74055812	         -9.15854732	         -6.24562970	         20.44955731	          3.75471652	         51.29847334	         31.40621282	         -9.34988454	
          5.38000000	        -22.28792083	         -5.03179132	         -7.37594272	         -6.35293867	         20.23652727	          3.87628264	         50.48424384	         30.89896608	         -8.74450105	
          5.39000000	        -21.46720812	         -5.30567320	         -6.18321246	         -6.40809500	         19.78293697	          4.03315247	         49.75402601	         30.59566840	         -8.14810940	
          5.40000000	        -20.99258535	         -5.53947409	         -5.64657649	         -6.43503404	         19.25230424	          4.20690768	         49.08637592	         30.34285591	         -7.58265069	
          5.41000000	        -20.72648250	         -5.73615092	         -5.48380062	         -6.44277791	         18.71230989	          4.38410914	         48.43630144	         30.08276303	         -7.04838673	
